<svg width="148" height="45" viewBox="0 0 148 45" fill="none" xmlns="http://www.w3.org/2000/svg">
<path fill-rule="evenodd" clip-rule="evenodd" d="M32.24 5.70388V3.69741H32.2078L25.755 0.016181V0C25.755 0 25.7469 0 25.7388 0H25.7308V0.00809111C25.021 0.161813 8.26784 3.95631 1.96828 12.589C2.19413 12.5647 -0.903224 15.712 1.12135 21.9498L0.960027 23.568C-0.741904 29.466 2.18606 32.4434 1.96828 32.411C8.26784 41.0437 25.021 44.8382 25.7308 44.9919V45H25.7388C25.7469 45 25.755 45 25.755 45V44.9838L32.2159 41.3026V41.2864H32.232V39.3042C38.8703 36.6343 43.5647 30.1133 43.5647 22.5C43.5728 14.8948 38.8784 8.37379 32.24 5.70388Z" fill="#7856C3"/>
<path d="M50.9292 30.5502C50.2759 30.5502 49.6467 30.4531 49.0579 30.267C48.4933 30.089 48.0577 29.7896 47.7109 29.3608C47.3721 28.9401 47.1866 28.3657 47.1382 27.6456C47.0898 26.9013 47.2995 25.9466 47.7431 24.8058C47.8883 24.4337 48.0577 23.9968 48.2351 23.5113C48.3965 23.0987 48.5901 22.589 48.824 21.9903C49.0579 21.3916 49.3402 20.6958 49.6628 19.9029C50.2517 18.3981 51.1228 17.1845 52.2682 16.2783C53.3893 15.3883 54.7767 14.9434 56.398 14.9434H57.4707C58.3741 14.9434 59.1727 15.0647 59.826 15.2993C60.4632 15.5259 60.9794 15.8657 61.3585 16.3026C61.7377 16.7395 61.9877 17.2815 62.0926 17.9207C62.2055 18.576 62.1652 19.3366 61.9716 20.2023L61.907 20.3803V20.3883C61.7054 21.0518 61.4392 21.6505 61.1166 22.1683C60.802 22.6699 60.3745 23.1068 59.8502 23.4628C59.3178 23.8269 58.6645 24.1181 57.8902 24.3285C57.2449 24.5065 52.2278 24.2799 51.3648 24.3366C51.3648 24.3366 50.8324 23.6893 52.0746 23.5356C54.7767 23.212 56.769 21.877 57.132 20.1537C57.253 19.5631 57.2449 19.288 57.1158 19.0696C56.9787 18.843 56.7045 18.576 56.156 18.576C55.6478 18.576 55.2768 18.6812 55.0267 18.8997C54.7928 19.1019 54.5912 19.4337 54.4056 19.9191L52.1472 25.6796C51.9858 26.1408 51.8407 26.699 52.123 27.0469C52.3246 27.2896 52.6231 27.411 53.0183 27.411C53.8007 27.411 54.6638 27.4029 55.5672 27.3867C56.4947 27.3705 57.4223 27.2492 58.3419 27.0226C58.4145 27.0226 58.479 27.0065 58.5435 26.9741C58.6564 26.9498 58.7855 26.9336 58.9226 26.9256C58.971 26.9256 59.0194 26.9175 59.0678 26.9175C59.1565 26.9175 59.2291 26.9256 59.3017 26.9417C59.3178 26.9417 59.3259 26.9498 59.342 26.9498C59.334 26.966 59.3259 26.9903 59.3178 27.0146L59.2856 27.0874V27.1036C59.2695 27.1359 59.2533 27.1764 59.2372 27.2168C58.8581 27.945 58.4709 28.5356 58.0838 28.9725C57.7046 29.4013 57.2933 29.7411 56.8497 29.9676C56.406 30.1942 55.9059 30.3479 55.3574 30.4288C54.7848 30.5097 54.1233 30.5502 53.3813 30.5502H50.9292Z" fill="#7856C3"/>
<path d="M66.0364 30.5502C64.9233 30.5502 63.9473 30.4045 63.1407 30.1133C62.3663 29.8301 61.7614 29.4256 61.3419 28.9078C60.9306 28.39 60.7047 27.7832 60.6483 27.0388C60.5999 26.3511 60.7451 25.5663 61.0677 24.7006H65.0765C65.254 24.7006 65.4879 24.7249 65.6169 24.8382C65.6169 24.8382 65.6895 24.9757 65.5524 25.4612L65.4798 25.7686C65.383 26.1489 65.3588 26.4725 65.4153 26.7557C65.4475 26.9579 65.6089 27.4191 66.3267 27.4191C67.0849 27.4191 67.6334 27.0712 67.9077 26.4239C68.2223 25.7201 68.0287 25.2103 67.819 24.9029C67.5608 24.5388 67.1898 24.1909 66.7058 23.8754C66.2622 23.5841 65.7621 23.2767 65.2298 22.9612C64.7377 22.6699 64.3022 22.3301 63.9311 21.9498C63.5843 21.5858 63.3342 21.1489 63.1971 20.6472C63.0681 20.1699 63.1568 19.5631 63.4633 18.8349C63.7617 18.0906 64.1005 17.4595 64.4877 16.966C64.8668 16.4806 65.3266 16.0841 65.8508 15.7929C66.3832 15.4935 67.0124 15.2751 67.7222 15.1456C68.4481 15.0162 69.3192 14.9434 70.3114 14.9434C71.4245 14.9434 72.4004 15.0971 73.199 15.3964C73.9814 15.6877 74.5863 16.0922 74.9977 16.61C75.4091 17.1278 75.6349 17.7346 75.6753 18.479C75.7156 19.1667 75.5785 19.9514 75.2639 20.801H71.2309C70.997 20.801 70.8034 20.7524 70.6582 20.6634C70.6017 20.6311 70.6098 20.5178 70.634 20.4207C70.6663 20.3398 70.7066 20.2346 70.7469 20.0971C70.7953 19.9434 70.8114 19.9029 70.8114 19.8948L70.8276 19.8625L70.8356 19.8301C70.9486 19.4175 70.9808 19.0777 70.9405 18.7783C70.9163 18.6084 70.7872 18.0744 70.0129 18.0744C69.5047 18.0744 69.1176 18.1958 68.8514 18.4466C68.6175 18.665 68.4481 18.8916 68.3432 19.1343C68.0045 19.8705 68.1981 20.3883 68.4239 20.6877C68.682 21.0518 69.0692 21.3916 69.5612 21.7152C70.021 22.0146 70.5291 22.3139 71.0776 22.6133C71.5858 22.8964 72.0375 23.2281 72.4085 23.6084C72.7715 23.9644 73.0054 24.3851 73.1425 24.8786C73.2716 25.3479 73.1829 25.9466 72.8844 26.6505C72.5698 27.3948 72.223 28.0259 71.8278 28.5194C71.4487 29.0048 70.9889 29.4013 70.4727 29.7006C69.9484 30 69.3192 30.2184 68.6175 30.3479C67.8996 30.4854 67.0285 30.5502 66.0364 30.5502Z" fill="#7856C3"/>
<path d="M78.1516 30.5502C77.4983 30.5502 76.8692 30.4531 76.2803 30.267C75.7157 30.089 75.2801 29.7896 74.9333 29.3608C74.5945 28.9401 74.409 28.3657 74.3606 27.6456C74.3122 26.9094 74.53 25.9547 74.9898 24.8139C75.135 24.4337 75.3043 23.9968 75.4818 23.5113C75.6431 23.0987 75.8367 22.5809 76.0625 21.9822C76.2884 21.3835 76.5626 20.6796 76.8853 19.9029C77.4741 18.3981 78.3452 17.1845 79.4906 16.2783C80.6118 15.3883 81.9991 14.9434 83.6204 14.9434H84.6932C86.508 14.9434 87.8308 15.4045 88.6132 16.3188C89.3876 17.2168 89.5812 18.5518 89.1698 20.2751L89.1617 20.3155V20.356C89.1617 20.356 89.1537 20.3883 89.1295 20.4531C89.0327 20.7362 88.8794 20.9142 88.6455 21.0194C88.3551 21.1408 88.0244 21.2055 87.6615 21.2055H83.9592L84.3463 20.1618C84.5722 19.6521 84.4593 19.288 84.3302 19.0696C84.1931 18.843 83.9188 18.576 83.3703 18.576C82.8622 18.576 82.4911 18.6812 82.2411 18.9078C82.0233 19.1019 81.8217 19.4337 81.62 19.911L79.4745 25.4207C79.176 26.1893 79.1115 26.6424 79.2809 26.9417C79.4019 27.1602 79.66 27.411 80.2327 27.411C80.6682 27.411 81.0393 27.3139 81.3296 27.1116C81.6281 26.9094 81.862 26.5777 82.0556 26.0922L82.467 25.0728H86.6451C86.9275 25.0728 87.1452 25.1214 87.2743 25.2184C87.2743 25.2184 87.2985 25.2993 87.2017 25.5178L87.0968 25.7686C86.6451 26.8366 86.1934 27.7023 85.7659 28.3495C85.3546 28.9644 84.8948 29.4417 84.4189 29.7573C83.943 30.0728 83.3945 30.2832 82.7977 30.3803C82.1685 30.4854 81.4184 30.534 80.5876 30.534H78.1516V30.5502Z" fill="#7856C3"/>
<path d="M92.461 30.2831C91.8076 30.2831 91.1785 30.186 90.5896 29.9999C90.0331 29.8219 89.5975 29.5226 89.2587 29.1019C88.928 28.6812 88.7425 28.0986 88.6941 27.3786C88.6457 26.6342 88.8635 25.6715 89.3233 24.5307L89.3313 24.5064C89.412 24.2718 89.533 23.9401 89.6862 23.5275C89.8153 23.1877 89.9847 22.7427 90.1944 22.1925C90.4041 21.6423 90.6703 20.9789 90.9929 20.2103C91.5818 18.7055 92.461 17.4838 93.5983 16.5857C94.7194 15.6958 96.1068 15.2508 97.7281 15.2508H97.8975C98.7363 15.2508 99.4865 15.4288 100.14 15.7847L100.414 15.9304L100.624 15.7038C100.753 15.5663 100.898 15.453 101.075 15.364C101.237 15.2831 101.447 15.2427 101.697 15.2427H105.004L98.9057 30.2912H92.461V30.2831ZM97.4942 18.8754C96.986 18.8754 96.615 18.9805 96.3649 19.2071C96.1471 19.4012 95.9455 19.7168 95.7438 20.186L93.816 25.1537C93.4934 25.9223 93.4289 26.3834 93.6144 26.6909C93.7354 26.9012 94.0016 27.152 94.5743 27.152C95.2195 27.152 95.7196 26.9174 96.0745 26.4643L96.1068 26.4239L97.6555 22.5889L98.454 20.4692C98.6799 19.9595 98.5669 19.5954 98.4379 19.377C98.3088 19.1504 98.0346 18.8754 97.4942 18.8754Z" fill="#7856C3"/>
<path d="M99.1392 35.8333C99.1392 35.8333 105.85 19.2556 107.229 15.8495C107.375 15.4854 107.729 15.2427 108.125 15.2427C109.633 15.2427 113.231 15.2427 113.231 15.2427C114.255 15.2427 115.142 15.3964 115.86 15.6958C116.562 15.987 117.07 16.4077 117.417 16.9741C117.764 17.5404 117.933 18.2443 117.917 19.0857C117.901 19.9514 117.675 20.9547 117.239 22.0792C117.022 22.6618 116.868 23.0663 116.78 23.309C116.683 23.5598 116.602 23.7702 116.538 23.9401L116.32 24.5064C116.239 24.7168 116.094 25.0728 115.908 25.5178C115.449 26.5857 115.005 27.4514 114.569 28.0825C114.15 28.6974 113.698 29.1747 113.214 29.4983C112.738 29.822 112.198 30.0323 111.609 30.1294C110.988 30.2346 110.238 30.2831 109.391 30.2831H105.777L103.495 35.8252H99.1392V35.8333ZM111.924 18.8754C111.416 18.8754 111.045 18.9805 110.795 19.199C110.569 19.4013 110.367 19.7249 110.173 20.1941L108.278 25.1537C107.98 25.9223 107.915 26.3754 108.084 26.6747C108.205 26.8932 108.463 27.1521 109.036 27.1521C109.464 27.1521 109.835 27.055 110.133 26.877C110.44 26.6828 110.69 26.3511 110.883 25.8576L112.9 20.4692C113.126 19.9595 113.013 19.5954 112.884 19.377C112.747 19.1504 112.472 18.8754 111.924 18.8754Z" fill="#7856C3"/>
<path d="M116.021 30.2833L123.087 12.9451C123.216 12.6539 123.41 12.4192 123.668 12.2493C123.926 12.0794 124.2 11.9985 124.499 11.9985H127.854L120.401 30.2833H116.021Z" fill="#7856C3"/>
<path d="M122.482 30.2833L129.548 12.9451C129.677 12.6539 129.871 12.4192 130.129 12.2493C130.387 12.0794 130.661 11.9985 130.96 11.9985H134.315L126.862 30.2833H122.482Z" fill="#7856C3"/>
<path d="M134.388 38.9722C134.138 38.9722 133.88 38.9561 133.622 38.9237L137.357 30.5499H134.638C133.985 30.5499 133.356 30.4528 132.767 30.2667C132.203 30.0887 131.767 29.7894 131.42 29.3606C131.081 28.9399 130.896 28.3654 130.847 27.6454C130.799 26.9091 131.017 25.9544 131.477 24.8137L135.147 15.2344H139.889L135.961 25.4285C135.639 26.1972 135.574 26.6583 135.76 26.9658C135.881 27.1761 136.147 27.4269 136.719 27.4269C137.155 27.4269 137.526 27.3298 137.816 27.1276C138.115 26.9253 138.349 26.5936 138.542 26.1082L142.745 15.2425H147.705C147.705 15.2425 140.357 35.2425 139.946 35.8331C139.526 36.4237 139.091 36.9172 138.647 37.3137C138.204 37.702 137.752 38.0175 137.316 38.2441C136.873 38.4706 136.445 38.6405 136.034 38.7457C135.493 38.8994 134.945 38.9722 134.388 38.9722Z" fill="#7856C3"/>
<path fill-rule="evenodd" clip-rule="evenodd" d="M32.2236 5.09743L25.7305 2.47607L25.7547 14.4583L32.2236 14.8143V5.09743Z" fill="#BA9EF9"/>
<path fill-rule="evenodd" clip-rule="evenodd" d="M26.5937 18.277L22.6655 17.6621V27.3385L26.5937 26.7317V18.277Z" fill="#BA9EF9"/>
<path fill-rule="evenodd" clip-rule="evenodd" d="M7.05762 22.5003C7.05762 20.7689 12.3167 17.6621 22.6654 17.6621V27.3385C12.3086 27.3385 7.05762 24.2317 7.05762 22.5003Z" fill="white"/>
<path fill-rule="evenodd" clip-rule="evenodd" d="M0 22.5003C0.00806602 7.65406 25.7629 2.47607 25.7629 2.47607V14.4502C22.4397 14.3126 3.58131 14.1832 3.58131 22.5084C3.58131 30.8337 22.4397 30.6961 25.7629 30.5667V42.5408C25.7548 42.5327 0 37.3466 0 22.5003Z" fill="white"/>
<path fill-rule="evenodd" clip-rule="evenodd" d="M32.2236 39.9107L25.7305 42.532L25.7547 30.5417L32.2236 30.1938V39.9107Z" fill="#BA9EF9"/>
</svg>
