<svg width="78" height="78" viewBox="0 0 78 78" fill="none" xmlns="http://www.w3.org/2000/svg">
<path d="M68.8166 36.1449C66.1624 34.818 61.1861 34.8026 60.9756 34.8026C60.3446 34.8026 59.833 35.3142 59.833 35.9452C59.833 36.5762 60.3446 37.0878 60.9756 37.0878C62.2597 37.0879 65.988 37.2857 67.7946 38.1889C67.9587 38.271 68.133 38.3097 68.3047 38.3097C68.7238 38.3097 69.1273 38.0781 69.3275 37.6779C69.6098 37.1135 69.381 36.4272 68.8166 36.1449Z" fill="#318200"/>
<path d="M74.5132 52.4124L69.7943 51.0641C69.5906 51.006 69.4483 50.8173 69.4483 50.6054V49.0304C69.8322 48.7644 70.1985 48.4667 70.5408 48.1344C72.1998 46.5245 73.1134 44.365 73.1134 42.0536V39.8801L73.5697 38.9677C74.0704 37.9661 74.3351 36.8447 74.3351 35.725V29.8369C74.3351 29.2059 73.8235 28.6943 73.1925 28.6943H62.1974C58.1993 28.6943 54.9464 31.9471 54.9464 35.9452V36.0133C54.9464 36.9445 55.1666 37.877 55.5829 38.7097L56.1681 39.88V41.7462C56.1681 44.7038 57.6255 47.3575 59.8332 48.9543L59.8335 50.6051C59.8335 50.8597 59.8335 50.9651 58.89 51.2348L56.5875 51.8926L49.9269 49.4706C49.9508 49.1563 49.8447 48.8367 49.6155 48.5959L47.4871 46.3598V42.606C47.7121 42.4206 47.9339 42.2302 48.1488 42.0288C50.8339 39.5121 52.3738 35.9588 52.3738 32.2802V29.2823C53.1846 27.518 53.5954 25.6511 53.5954 23.7283V11.5119C53.5954 10.8809 53.0839 10.3693 52.4529 10.3693H35.3494C29.3303 10.3693 24.4335 15.2663 24.4335 21.2852V23.7287C24.4335 25.6514 24.8444 27.5184 25.6551 29.2826V31.862C25.6551 36.1331 27.5543 39.981 30.5419 42.5178V46.3599L28.4135 48.596C28.1842 48.8369 28.0782 49.1565 28.1021 49.4708L21.0722 52.027C20.5628 52.2122 20.0894 52.4631 19.6597 52.767L18.5558 52.2151C21.8418 50.7847 22.8828 48.773 22.9328 48.6731C23.0936 48.3515 23.0936 47.9728 22.9328 47.6512C22.109 46.0037 22.0093 42.9841 21.9291 40.5579C21.9025 39.7502 21.8772 38.9871 21.8289 38.3076C21.4393 32.8272 17.273 28.6943 12.1375 28.6943C7.00202 28.6943 2.83557 32.8271 2.44618 38.3076C2.39789 38.9872 2.3726 39.7503 2.34594 40.5582C2.26581 42.9843 2.16587 46.0036 1.3423 47.651C1.18143 47.9726 1.18143 48.3514 1.3423 48.673C1.39227 48.7729 2.4311 50.7805 5.72371 52.2125L2.65748 53.7455C1.01827 54.5658 0 56.2134 0 58.0459V66.4871C0 67.1181 0.51157 67.6297 1.14258 67.6297C1.77359 67.6297 2.28516 67.1181 2.28516 66.4871V58.0459C2.28516 57.0843 2.81943 56.2198 3.67941 55.7897L7.4976 53.8807L8.82573 55.1428C9.75442 56.0254 10.9457 56.4664 12.1375 56.4664C13.329 56.4664 14.5209 56.0251 15.4493 55.1428L16.7773 53.8808L18.0223 54.5033C17.436 55.4413 17.1033 56.5412 17.1033 57.6934V66.4874C17.1033 67.1184 17.6149 67.63 18.2459 67.63C18.8769 67.63 19.3885 67.1184 19.3885 66.4874V57.6934C19.3885 56.1249 20.3789 54.7108 21.8531 54.1747L29.2649 51.4796L32.3503 56.1079C32.7448 56.6996 33.3768 57.0791 34.0845 57.1492C34.1634 57.157 34.2418 57.1608 34.3202 57.1608C34.9445 57.1608 35.5424 56.9151 35.9894 56.4682L37.8717 54.5859V66.4876C37.8717 67.1186 38.3833 67.6302 39.0143 67.6302C39.6453 67.6302 40.1569 67.1186 40.1569 66.4876V54.5859L42.0393 56.4682C42.4861 56.9152 43.084 57.1609 43.7085 57.1609C43.7866 57.1609 43.8652 57.1571 43.944 57.1494C44.6518 57.0793 45.2839 56.6998 45.6783 56.1081L48.7639 51.4799L56.1755 54.175C57.6496 54.7111 58.6402 56.1252 58.6402 57.6937V66.4877C58.6402 67.1187 59.1517 67.6303 59.7827 67.6303C60.4137 67.6303 60.9253 67.1187 60.9253 66.4877V57.6937C60.9253 56.105 60.2942 54.6151 59.2354 53.5132L59.5177 53.4326C59.8024 53.3513 60.1909 53.2399 60.5809 53.0487L63.4981 55.966V66.4877C63.4981 67.1187 64.0097 67.6303 64.6407 67.6303C65.2717 67.6303 65.7832 67.1187 65.7832 66.4877V55.966L68.6802 53.069C68.8342 53.1473 68.996 53.2134 69.1664 53.262L73.8853 54.6102C74.9624 54.918 75.7148 55.9154 75.7148 57.0357V66.4877C75.7148 67.1187 76.2264 67.6303 76.8574 67.6303C77.4884 67.6303 78 67.1187 78 66.4877V57.0357C78 54.9002 76.5661 52.9991 74.5132 52.4124ZM7.33002 50.3943C5.19279 49.6253 4.12075 48.6 3.66311 48.0401C3.97511 47.2245 4.17742 46.2903 4.31437 45.3042C4.94447 46.815 5.99975 48.1047 7.33002 49.0249V50.3943ZM13.8755 53.4866C12.9009 54.4125 11.3743 54.4124 10.4001 53.4864L9.33745 52.4767C9.51676 52.1408 9.61533 51.7599 9.61533 51.3609V50.1431C10.4124 50.3922 11.2597 50.5265 12.1378 50.5265C13.0149 50.5265 13.8618 50.3915 14.6602 50.1438L14.66 51.3608C14.66 51.7599 14.7585 52.1409 14.9379 52.477L13.8755 53.4866ZM12.1381 48.2414C8.72625 48.2414 5.9507 45.4657 5.9507 42.0539C5.9507 41.4229 5.43913 40.9113 4.80812 40.9113C4.74414 40.9113 4.68168 40.9179 4.62059 40.9281C4.62394 40.8298 4.62714 40.7314 4.63049 40.6341C4.65593 39.8484 4.68046 39.1064 4.7257 38.4699C4.87165 36.4169 5.69202 34.5251 7.03569 33.1427C8.3914 31.7479 10.2034 30.9798 12.1378 30.9798C14.0723 30.9798 15.8841 31.7479 17.24 33.1427C18.5837 34.5251 19.404 36.4169 19.55 38.4699C19.5951 39.1062 19.6197 39.8481 19.6456 40.6336C19.6479 40.7011 19.6502 40.7695 19.6525 40.8375C18.4094 38.9222 16.4895 37.5107 14.0089 36.7137C11.7172 35.9774 9.74619 36.0229 9.66301 36.0251C9.36381 36.0335 9.07984 36.1587 8.8722 36.3741L6.81068 38.5121C6.37269 38.9664 6.38579 39.6897 6.84008 40.1277C7.29437 40.5657 8.0177 40.5524 8.45569 40.0983L10.1711 38.3194C11.6484 38.3916 16.401 38.9443 18.2494 43.0145C17.7843 46.0138 15.2063 48.2414 12.1381 48.2414ZM16.945 50.3981L16.9452 49.0354C18.2744 48.1203 19.3312 46.833 19.9618 45.3107C20.0987 46.2946 20.3009 47.2266 20.6123 48.0404C20.1572 48.595 19.0801 49.6294 16.945 50.3981ZM27.9403 31.8618V29.027C27.9403 28.855 27.9015 28.6852 27.8267 28.5302C27.0914 27.0077 26.7187 25.3922 26.7187 23.7287V21.2854C26.7187 16.5263 30.5905 12.6546 35.3494 12.6546H51.3103V23.7288C51.3103 25.3924 50.9375 27.0078 50.2023 28.5304C50.1275 28.6853 50.0886 28.8552 50.0886 29.0272V32.2805C50.0886 35.3747 48.8448 38.2447 46.5861 40.3618C46.3041 40.626 46.0115 40.8737 45.7089 41.1045C45.7022 41.1091 45.6958 41.1141 45.6893 41.1188C43.5734 42.7253 40.9817 43.5061 38.2752 43.3307C32.4798 42.9555 27.9403 37.9178 27.9403 31.8618ZM34.3736 54.8522C34.3657 54.8601 34.3473 54.8788 34.3099 54.8749C34.2728 54.8712 34.2581 54.8494 34.2519 54.84L30.6985 49.5098L31.842 48.3083L37.2327 51.993L34.3736 54.8522ZM39.0145 50.4429L32.827 46.2135V44.0807C34.428 44.9462 36.2206 45.4874 38.1272 45.6108C38.4284 45.6303 38.7278 45.6399 39.0262 45.6399C41.211 45.6399 43.3136 45.1177 45.2019 44.1264V46.2135L39.0145 50.4429ZM43.777 54.8403C43.7708 54.8497 43.7562 54.8715 43.719 54.8752C43.6817 54.8799 43.6634 54.8602 43.6553 54.8525L40.7963 51.9934L46.187 48.3086L47.3306 49.5101L43.777 54.8403ZM64.6407 53.8763L62.0478 51.2835C62.093 51.078 62.1186 50.853 62.1185 50.6048L62.1183 50.1227C62.8378 50.3588 63.5962 50.499 64.3809 50.5224C64.469 50.5252 64.5563 50.5264 64.644 50.5264C65.5112 50.5264 66.3576 50.3954 67.1632 50.1454V50.6054C67.1632 50.8333 67.1918 51.0567 67.2458 51.2713L64.6407 53.8763ZM68.9494 46.4946C67.7384 47.6698 66.1387 48.2904 64.4496 48.2383C61.1432 48.1391 58.4532 45.2268 58.4532 41.7465V39.6105C58.4532 39.433 58.4119 39.2581 58.3326 39.0995L57.6268 37.6879C57.3682 37.1707 57.2316 36.5918 57.2316 36.0135V35.9454C57.2316 33.2072 59.4593 30.9796 62.1974 30.9796H72.0499V35.7251C72.0499 36.492 71.8686 37.26 71.5257 37.946L70.9489 39.0995C70.8696 39.2583 70.8283 39.433 70.8283 39.6105V42.0538C70.8283 43.7417 70.161 45.3188 68.9494 46.4946Z" fill="#318200"/>
<path d="M71.9707 58.0143C71.3397 58.0143 70.8281 58.5259 70.8281 59.1569V66.4869C70.8281 67.1179 71.3397 67.6295 71.9707 67.6295C72.6017 67.6295 73.1133 67.1179 73.1133 66.4869V59.1569C73.1133 58.526 72.6017 58.0143 71.9707 58.0143Z" fill="#318200"/>
<path d="M6.0293 59.5253C5.39829 59.5253 4.88672 60.0368 4.88672 60.6678V66.4875C4.88672 67.1185 5.39829 67.6301 6.0293 67.6301C6.6603 67.6301 7.17188 67.1185 7.17188 66.4875V60.6678C7.17188 60.037 6.6603 59.5253 6.0293 59.5253Z" fill="#318200"/>
<path d="M48.3743 24.1429C44.0529 19.8216 35.0114 20.6477 31.3244 21.2035C30.1631 21.3785 29.3203 22.3613 29.3203 23.5403V26.1725C29.3203 26.8035 29.8319 27.315 30.4629 27.315C31.0939 27.315 31.6055 26.8035 31.6055 26.1725V23.5401C31.6055 23.5013 31.6311 23.4681 31.6652 23.4629C33.1379 23.2409 36.0603 22.8984 39.0881 23.1003C42.6512 23.3375 45.2319 24.2319 46.7585 25.7587C47.2047 26.2049 47.9282 26.2049 48.3743 25.7587C48.8205 25.3125 48.8205 24.589 48.3743 24.1429Z" fill="#318200"/>
<path d="M25.5762 60.4582C24.9452 60.4582 24.4336 60.9698 24.4336 61.6008V66.4875C24.4336 67.1185 24.9452 67.6301 25.5762 67.6301C26.2072 67.6301 26.7188 67.1185 26.7188 66.4875V61.6008C26.7188 60.9699 26.2072 60.4582 25.5762 60.4582Z" fill="#318200"/>
<path d="M52.4526 60.4582C51.8216 60.4582 51.3101 60.9698 51.3101 61.6008V66.4875C51.3101 67.1185 51.8216 67.6301 52.4526 67.6301C53.0836 67.6301 53.5952 67.1185 53.5952 66.4875V61.6008C53.5952 60.9699 53.0836 60.4582 52.4526 60.4582Z" fill="#318200"/>
</svg>
