<svg width="78" height="78" viewBox="0 0 78 78" fill="none" xmlns="http://www.w3.org/2000/svg">
<g clip-path="url(#clip0_3122_1271)">
<path d="M75.215 25.0751C73.6768 25.0751 72.4299 26.322 72.4299 27.8602V36.2152H64.0749V27.8602C64.0749 26.322 62.828 25.0751 61.2898 25.0751C59.7516 25.0751 58.5047 26.322 58.5047 27.8602V36.2152H33.1891C31.651 27.1156 23.0275 20.9857 13.9278 22.5239C4.82819 24.0619 -1.30167 32.6855 0.236341 41.7852C1.77435 50.8848 10.398 57.0147 19.4976 55.4765C26.51 54.2911 32.0038 48.7974 33.189 41.7852H75.215C76.7532 41.7852 78 40.5383 78 39.0001V27.86C78 26.322 76.7532 25.0751 75.215 25.0751ZM16.7297 50.1402C10.5772 50.1402 5.5896 45.1527 5.5896 39.0001C5.5896 32.8476 10.5772 27.86 16.7297 27.86C22.8822 27.86 27.8698 32.8476 27.8698 39.0001C27.8698 45.1527 22.8822 50.1402 16.7297 50.1402Z" fill="#FF492C"/>
</g>
<defs>
<clipPath id="clip0_3122_1271">
<rect width="78" height="78" fill="white"/>
</clipPath>
</defs>
</svg>
